<mxfile host="www.draw.io" modified="2019-11-28T03:13:53.483Z" agent="Mozilla/5.0 (Windows NT 10.0; Win64; x64) AppleWebKit/537.36 (KHTML, like Gecko) Chrome/78.0.3904.108 Safari/537.36" etag="M0WB1MQz5iBC9qIW-Peu" version="12.3.2" type="github" pages="1">
  <diagram id="i5sZwpuOgYno_SuQmfmc" name="Page-1">
    <mxGraphModel dx="1398" dy="781" grid="1" gridSize="10" guides="1" tooltips="1" connect="1" arrows="1" fold="1" page="1" pageScale="1" pageWidth="827" pageHeight="1169" math="0" shadow="0">
      <root>
        <mxCell id="0"/>
        <mxCell id="1" parent="0"/>
        <mxCell id="mM6E--xUafw9xjtyWwfx-3" value="" style="shape=image;verticalLabelPosition=bottom;labelBackgroundColor=#ffffff;verticalAlign=top;aspect=fixed;imageAspect=0;image=data:image/png,iVBORw0KGgoAAAANSUhEUgAAAHgAAACeCAYAAAD5ec5NAAAdUUlEQVR4Ae1dCZgdVZX+a3lb9+tOZ08wwCAC6jhGBRRmGDAgooIo64yDw+i4S4jI4siIgOhEMYDsa8SIhiiogISRRHaQCUtIJAlMCFuApEOSTnp5a23/fOdWVee9TL90v+73enmp+r7uV3Xr3nPPOf8995576tYtjSQRHQ2rAb1hJYsEUxqIAG7whhABHAHc4BpocPEiC44AbnANNLh4kQU3OMBmTeTzbMBzgd4ptQagr+m15ueR23LoBmDEg4t6/BBwLcBjeb19VhXwLDLoOqDHfP76zDt2EocGsOcBb68FHr4WXL0EmpUDNE1BG2JYqgqBXKWToG5A2/dQ4MjZwDv/HjDMAIS+SpZS6edcANI0wMoDq+4DHrsJ2PhCP4X85ujz5oHpCdAOOhU47CvAuOl+WaE5Bg9t0JEsUeTGNcC8I4DObUBsENJ7gaF/47fAwafWBmBhw3WApZcDt38XkA6i2oFIWqIN4J3vB85+EGiZGDbNQQg5skWqFX0Ht44F3HMh0LUNSARKFGrV/En/IX+LZvtd/JCtJBgWtr4G3PFdIBXQr4YnyWsASAJ4/XngsRsDcPsacnaoY7SeiTiDOzwHWPvI4Cy3tEbp+TJbgNefLk0d5Lk/POC1p0GRbKi9qvRKK+4KeBkqsUGKNMRigweYHlDsGWL1oe50oGdzTWgJDLQLQ8a2lxnp7sfwMXiARWhtaMXL9FYTWkE3WktjG/KwUSblsF/UEKFh572PCkMPPuiq+8ixuyU1GMA7ht1aGvFYbhQNB/BYBqMevEcA10Oro4hmBPAoAqMerEQA10Oro4hmBPAoAqMerEQA10Oro4hmBPAoAqMerEQA10Oro4hmBPAoAqMerEQA10Oro4hmBPAoAqMerEQA10Oro4hmBPAoAqMerEQA10Oro4hmBPAoAqMerEQA10Oro4hmBPAoAqMerEQA10Oro4hmBPAoAqMerDQMwDtvNVK7Zepje3XXKAJ4aJBo8k6UvPMk66Lp1W5dtKz/HsPH6AG4983EGmhTFqvXyvDkrUl1DK0B1kCqQZFoGIDFesWKBVfN8/p8ebVaDSlIGdKqVYuplouh5R89AA9NDgVuLwmtNgYskEqnPzah9bXRMACXv3Bey+7Uh3dnJ663MY3ykwYC2Le3Wupbmom8muT/jk07HkUA11CBNXmRLejmZfcHaTW17BRq2Qr7oTU6ANYIdG7wWR20N83eLULY1d6P2FXc7t4ETW0LUalMKfKl55XyD2+6PuJji+hEFLhm6Q7JBwOy2pojeLvwmd9Uv23DjtrLzpjdDm39s4EV9wVgODTIvRr2QmVcDP5Cl6nFiB6hftbcDz56oz/olfDUl0qF39J0dR6W+c1ZwOZ1tRFJvHHh7xdfgJbpCC7KSft8SKZhfmV1gEYwqE1YRCit0AN8exLoWr4SyuWu/kqI6gY487PAzOOA1qnKIKT3rnSoWzL3lWDEtjeAZYuAVx6vjSEpIYOa5bx1GjBrDrDXB4BUi9/ryO1gZyhoMWiyU5A0vbDRVmJ8sOl0gYl7Aekp/hZP0vrU8CEV9n0MCmAhxQBgTfahqky/71p3Tg2UqXiV8zB4FFhqX+R31r+yNPEoJHNfBXaus7/rnSuQ/BK1DHcGCurYOVstqq7IWljZh44HTr8FaJ1SMWt4Y/D7ZKkuQmqswRFoRf0ISCWuXyWFlab3nocKqAFLZVYoFQht2X1H/kqO3rpr1K5KSFc+Xf5H0ClC++YfgHhT5XzlqtxlvrKbvh79sGCNIPbpl2qrrMYBXgy1/M7VCL2QZvi7c56RuI4D2ool4KYX1QOWXbFQYiu7ylZ+z5fVA2r51Ka8iuiqPw3oANcvD7qWypl7Aa56uiSP0QboyVWuProzKA0EQ5Eme3D2c+iua8O2i+XB+n4KqdsSLQqnJgPJH+WpnQbC4WJXU4ygNtMwDMhfNYdqQApgHYTbO0xVQyPKOzwaUJEs27bhyc6xAzykAQnI8iAtbEwDLBplG2YN6K7rqu5Zlz2So6PhNKAsuFpwgzG+bKrYcJppEIF0x6l+s83Sbrn0vEF00lBi6KZpoloLbigNNLgwunjQ4mTlcrkGF3X3FE93XSIWS6Crq2v31ECDS61bloVsNouOjo4GF3X3FM9sbm5Wkre0tOyeGqhG6jAyOBjPcihlq+Fxp7y9k99p06btdCu6LNPAUOaGQylbxkT1F7o4WPKgIZGQT6dEx4A0IBYsoPX3NyBi9c1kyjRpxNdl1VfG2lEvBdQMvo5Wibp8lcYNlqaUduml55XK1jDdjMAdgDbDLrZpMnDUHOBDJwBT9w+WdwRrsMrIaIAAvOlF4Lk/AI9cD2S3+hYv+YYR5MEv2SkTqIEvFLgasO9hwBl3A80TBiasHgdmzPT/Dv8GcN3xwBvPDvsz9F4na2Bc76a5Ju4DnHmvD261ixwkf9s0YM5iYPyMYbVeQSsCeFdtVqxXjuMuAlLj+l2iGuQu/wmXtrZMAY4+d3j75wjgciz6vDJiwEEn+7cGu4IlLPeR0/zP6YYNp88Ka5vYa8FVr8mqLR+jl1qqDYjLVy6HeEhXnZ4ICL1hPHoBHsY6x1ZVifQQu9XQXAPX2ZTPmg7f0QtwNF2qpPQQoEr3+0sXYGUqFdIJf/srV5v7vQDXhlxEpX8NDOMkOPh8cv887dY5hmpxUr4U1KHSqw6MyIKr09cgcpeCO4jiQywSATxEBQ68+PBabshXBHCoiYq/tVLRyFhyrbivqJ4xf8OzayNCGOIc5q0RI4D7gY+5TsBz1aPffrLu+nYYzSp07jpfje9GAO9KobJHRyEDbnje94NDK9xVmb7uheVW/zdgDe/q1QjgvgCRNPGJ5E80dNeFO3KFYO1IqXAWOFXyE1rvksvVO9Vls6YKpWuVHAHclyYVKP70VZ2+uAS850IfKAFLEgVo+Q2P0nNJY7hBSpDhzvOAV54Icw/bbwTwrlQdLtZwbWhLfwrecpq/YZtgJ0CXOsYl5wpruZY9rLe8CtxwCvDwtYBtlTeKXdVdo3vRio6+FCnglFqkgCkvyT+7CFx5l9rKSBv/N0As6Xe5isYOhJWR2wWgYz207esBp+DT25Glr1rrkhYBXEmtpWBId6x6ZkKz88CmteCmtWUGXEpG2kZYXJ3LRZhQmnEYziOAB6LkABz1U3peoWwplqXnFbLXNTkag+uq3pEnHgE88hjUlYMI4Lqqd+SJRwCPPAZ15SACuK7qHXniEcAjj0FdOYgArqt6R554BPDIY1BXDiKA66rekSceATzyGNSVgwjguqp35IlHAI88BoPmYCDvkw0eYImiD/MCskFrotEKBo8yB7LX7xAANoBx08qfmzaaIkejPMGzSMonksfP6HdD50EBrBqQbgIfOBG0Ai0ErWo06qRheArBdQFtylRg30PL1iX0JeegngfLN75oxoBjvwdt42pg5UNAvC/yUVqtNBBgq77bpKVS4BcXAKnx/e6QNLgPY5FqTZkwr8m6Yfnu4GtPA1YPUKMvf9ZKMQ1DR3Quuw1M2AfagSeAE/ZWuu7vtd9BAaxaU9hdyKfVRYsDXk7aMCofdkFE5aJs5VzJwi+ldv/T9pWYGRTAlYhF6aNPA4NyskafGBFHlTQQAVxJMw2SHgHcIEBWEiMCuJJmGiQ9ArhBgKwkRgRwJc00SHoEcIMAWUmMCOBKmmmQ9AjgBgGykhgRwJU00yDpEcANAmQlMSKAK2mmQdIjgBsEyEpiRABX0kyDpEcANwiQlcSIAK6kmQZJrx5gtawAkG96Bd/12vXKyiC/6EtOw7/eE3Xf+//qDMr5+eW+V1LYP1X1B/nUfZUnyCfnlQ6faO9duRRavaTUiXwZ3etl088c8FFRjlIWpXzfX1fvraeER0nz08M6SuQNCrAkfy/z/ZxUB7BUZPsVFwHklUJ7OQvU4QFesElYwJgoyoMLBy5ka0+lepFdtGpZoOwfJTnogXR7y7u2X7LgFQKA5Z5ff8by1aeqUElCTAp4gO3XIgopFP19JiWfF5T15D6BQk6k8PnJ2qq0f+FI+SJcr6B49ZuKB88uqD8pIzl6G1jB8deIE8g5/r2CrE9DsbeBOJavE1+FhCvClehP6ig6NnwQXaBY9GVxASp2PdgM7/eDasnt6gCWZUAxXS24k+WYspCSdOApxoK1QkJc95EtiuDKNHTISkxNFG4HezWKRJJNvp1oGihaedXi/UVkmtozzDBFbzZi4UI++e6BZ6OYy8GIB4BIfZRtrASssNUTtmPD8hwkEgZcB7Bkqamuw3Nd6LGYUkEymYB8IDtfdCGLRCWPrHnybB94x/EtMJcjHNtW5XTdVGzb4acJRYa4MAqVJxasU03E0/A8f2m6tFnT9NdQyecMY7oGwwiuPcJWLQWImYYCXtUvhIoOvAKhKZoejFAPJQD2d1oVwCKLpQF5W8C1EWceGrJAzFdsaLiW7CUFIJEw1V6PPT2Sz4Xn5NASiykFWQnAFsY9X9BEXIOhSXP1kOnKgknA0QATMZiu7ucT7egeEk1J1W56rKA4i4gnBDQTcFwgHoej6TD0uP8tDAKGARQcQjcNQKxHEJK2aCjO1HnMAIq5DPRUTIETj6dVm2lJaTDNBFxHCPnrg5MmEDekcdnwXJHXgxmPwRQleUDOMkC9SQFPWTwuYhIQnKWdOp4rfQRoaApAsQmDhKnr0KVlS2+TikNv0hSrtm3BgOcvcFTcDuxfVQCL0cmfqYARhj1A19Vem8K07gKF7m2Ix3S4GlAUyyLQ0pICrCzipgfHsZGz/K662wGcmNi2mEPRp1fUkG5rRoF+ednKF5Z0gQbyWQvdmzYi27UN2SKQDNdii6Kl8RUt2IaOomUjacSUMvLSq8eAgi0WoqlhQKHt2Zh/7VV4fNkyJBJ+XoNAorlJLUelp6v9JnUdKFieAkjTTTX6ZDJFSF5N9pI2PWhxAzRMhYkOB3EQ82/5FVb+9RVYtgPD0CUzPJFFGoAAJXqDrhqqGIb0MiKjOmTFpBmDK+m6OkVcdtUbzIfqWOXheqSnyri0rSw9WvRo0ytYpG1x5YN/YEoDL735Nm4hmSXpOvJvC+9deAWbU02cecgsbiqS20l2krRZIAubeOwhH6SBZj66bC032UUWaZFWD5fedhvbzIk0kGALwJQJnjv3Sr5RIG3HI+08775zEXUDRLKJseZm7jt9Kr933nlc15Hn2ySLJPMF4ZWkZ9Pd9CYPmDaZ3zz/AsWHuuGSwqrluSoPPZeWK/yRjtTjyT3SEyKORRa30/I6FZ8qj/yzumnnutnWth/nfGsu8wVXhFdSCj0WhIjDotPDPDMs0Fb0Vf1SvpAjPYuu4/Mq/GQVDdJzhE51R1UWLK1L8xszLLrQYmJCBjTHhWaI05DHFfMuU6386ut/rqxdWqF8aRWwYBfyKOQL+OtTy7Fu3Wu9PmYRRWxYuxbPLlsBFxq6ChmkTRM6bMy//Bqccvrp2HvfffHMMyvwwktrcMbsr+GyC87Fp444DI6hgWYS2e4epBMJXHjJxfjRj+eC+SyuuvwynHH2+chIRwOxeAOO6yinTk+acItZGAm/u1eWU/CHFmo6nKINOp50UJChWLpyGSvVcCndbT4jokPXpOP0fU95m0eGELFi8RsmtE1GLKHDdiUH4OQLfh9tGIgbBmSwonJVHd+whUn1lTUNumH4HaQa6nT/vvQEVR7VlwgqsCFMEVrvG4YFtL+0CncveRJFmNiw5iWseK4dhjgYMQfI5pBOp9GU8vvVP933BGTUJGw0Abj//iVQ7lfagKXlkYCNbe2bMXfezUgm3oH7H1yCmQe+B3vstx/mzZuHC752OtY99Rf84c8PQfZQTyVSQK6IObPn4Kwz52DdujUY39aKda9sREKGcIWMDVPXoMlga2hquGhJNynwbRlLNAOa5ymZjGQKmjQy6baDnlMAFAdceQ3i8Ni+h27Dg+he1WEYKBRyaJJu2y0im5fGL8ibMOMJuLaHQi6rfHADNmhlQaeohjQxkZztKgMRRHUZr4NxUUYJ1YvXFeBwe93SSoqyRa64qT14/OGHkNOBedfdrJr9XbffpoY7pZGmJmS6upGTVswYfj7/10pZaeShsRuXXX0jHOkRxJlIajCRwfInH8cb2zox74YFmDytTXnvnpiNR3z3jH9HM4Crb5yPjDQUy0NCA3q6uhR3+rgJOO6Tx8GlBpmECaZSTnnpgpKbR0s6ia7uPC669GokEjrSzQksvP0O2OLdwcPr61/HrFmfwv88tRp77/NuvPfd70VzzIJj57DgtkWIpSYhFmvBe/bfB088skIBIk1WT5iwPXG+HLSkDLh2DmfOORsnnPJ5WJ6HZHMKnmXjqisuR2tqOpKJNC750ZUQEM24gUwxj5M+eyJuvOZ6nHPW2UjGU3jiyad7e7xS9fd7XlWPLmNPMAzkaDEnY6eMk3YP2bmOB+3RxCOP+zS3kZy+53vYnJ7BjRl/DKP9Bhff/ENOTI3n7G9fTg3v4hPPvEw66/jy04s4Lj2R19/2JyLZxrv/8gDJV/jbWy6hHt+D6zaQOccfH9UYmusg86/zS58+gu867BPcRPJ3t/yS0wywvUvGRNJ5bT33a9uD+x31L3xVuCzKWG3RsizSK5Cbn+dBe6aJ2GSOe9/hvOXqS3n0wQcQRit/fbfUX+Ara1cSaCUwiV/40mz+Yv4NpNfOC77zNUKfwHMvvoKPPnYXP/PJQ6hjAh9c+ld6zHBb95ucNHk/XnLxFaS9nefO+TdqyQm876HlFB+GrsXvn38WZXL1uztu5fxbbyKMcfzJlbcwT5dFr8Cp46fRRILvO+D9/NEPL+WKF19iXtyHqgCTF5qqORRz4oD4TosoUhTBzNvsWL6UkwD+/v6l7CB54zU3UUOKv16ykhnJZq/nQ7/8MSekp/CBR15jS9sHeeH35pL2q/zxOSdz1tHHc+mKjUR6Cpc+8yjprOaF3zqJMPfgc6/7zlpPMc98Pku6GbL4Juf8y/HEuL34aoZc/MtFnADw9t/dwcuvu4FT9WaOQ5q33vMoN0v9wns2pzh2eraSmbU8oA087MSvcr2kup10O15hy8R38ZCPncJcZhPXPr+MifSePP/iG5Tz5Vpd7HjjSSYAfv5r5yu5XK+TTm4z95o2k4d++HgW2UObnZw+ZU9ePvcKLvrF1TIT4sI7/+Sbg2Wxa1u7+Mu87tqfKQPJFgs86XNf4UcO/ziLzHFz50bOmL4f//7gY7ilPat4F/9L/qoFuMoxWLkTKiBhOTICy7TTAVJJ/OTK69WLhTMmT4HdlcG73jlFTX+uvOHX6JI+UiOymQ5krAL23f9vcMxH/hY3/tcP4bS7+NVvH8AJpx6HvfZJA04OPT1ZwGjCpMl7QNOTmDrZn57F4hqSSYlESLSsCfmigf0/OBOxlAQ6LMh3Qk87+VScc+YcnPLVM/DIM8/h9GMPR/hRdttIqKJGU5OazEvoZdY/HIQW6ed0E3p6PI4+6nBkOrci1dyKvOehmMviy1/6onKk9FgCnXlbDRXnff1z0POEpzXDS07GER/9GPL5PLb35GDZWbSiC3MvPAef+/Ic/OCqa3DyiZ9ATIIcMQfrX39ZOWtnzPkONDOJ5lQa9/3xj3h743royKt4gGUDnznpXzF+ShPERzOFA1fiCb7D1m/XHGSQ0b+6Q1zKmIG4KfNXwNQ95LduxsI//hnbPeAjBx6sAnkya4uZOpYvvg8db/8Ue0wlkuMmwNITSLUAXz/tM1j98J244JKf4aW3evDPp34W6za8qt5SbE7KN3YTeMeee4NWJ15YtQEzPzQFfgBK3HgN6Lbwl2dXI3nA3yEZNFNx0ja3b0R62nQ4FiDBCPFxrWwPjOZxMBO6v+uEMB5rgqdp8Oy8io1AHKGYrsKZMl/O53MYP348zEQSyVRCuRESHZMxXOb8ndu2BtEpPw4gYdY1a1YhYcaUblzXUYEV8fDuu28xzvrGbOWw6fRpmLEEvvzNOfj4sUf73rJtoln5HhqaUyk4HtApAR9xvAoeWps9mPX3omXWnUI+Z0HCeOLpwsvj0QcfwMasi3seXY6Ozgza169HvrAJv1l4K+hswxP33wMYzehwxV9uQaEAHHXMwchaRVy54Jc44tMnY1JrK1rEt9Ga0N0t/mQcBx16MOKJPObNPU9FwCCjljRn18Wdf34QL6x/A/988kmIS5KhIZ5Mohi8xhqPBW+06jbizX54Udq+q+LeEsSQqYeprE55yY4Lr2Dh8SeXYfykiUilEtjSvhGOrqPH8lQ0SUKJKThIxIEHn1qFvDjjsOFZ3Vi5cjkO/PCH0Rw3YGpJ5OOTcOV1N2Hx7Tdj5SNL8E+n/Svy0hDNFKZN20OFNVva0jjm6KMx68iP4uNHz8LHjvoocgUbhmEiLlFAzVGeeUuTrpwymbZVfahBaaD/dhqDXXFntq/lCbMO5PsPOZJbAkdIBRLyW1jo6eDEthl8z/4zaXVv4G/vuI1Iv5uvbSW59VWee+I/ElqMdz7wBC07y9VrVhB6Gx979n9J9pDFt/iTn15E6Do/c9Ln+drrG9j+6oucf81PqRsx7v+BQ7nV88fnhTcvYKtu8pU331TOSF6CFh7puFnmi1vpeLY/fnkuvZ7tZGc7P7iXdCtp3vr7xdzS/hbPO+tMwmjhg8ueI9nFV19aQcSmcN2WwFFkjnTf5omfPJR6fBx//6dH+Vb7yzz/gnMItHHBgsUkM+zZ/ianTnonL/7+T0h7C2+69mLCiPGLZ/0Hc7kM6RZ45rfmEKk4L7rsEr686S0+/8IW3vzzu+ixwO7sZk5o25vf/8+rlFObzxf9wdeTsEd1R5VOlkRisnSz3UqJ4kO/8cLTbNXA39/7MLuU/yVudkEx5ORdXn3ZZRyX1PnSqqd4669+QTTvw5fF67Fy5Pb1XLHqeW63HDp0uXrNi4Se5kOPPaM8TXo9SmELFt7KptQ4aogpz7OlSQKFOpf99X8pbUWcujsW3slJza3c0pPlNofM2b7XbdOlraJtFl3xnuXPypPbtnCfCa38/L9/ganJkyVKzESsiTfdtkh54bS7uGrlU9TH7clVb2UVPYHZyXeR+U6eP/urjMucSKIViRhvXHAvJZhHL0O7q537zziAV827SblGMt+48NL/Igyd8xf8iq6aidj8wY/O98urDmY6jzz26+x2bHbmO7nPXgfwpmt+LiE0FVUrFtyqHSxpCtW9AC5BDYm/ajqymgTkHbToLtxcEXa8FXoMiMGCY9mIxZp9z0gTD0tiydKNNqlghkxJm+SRnFcE40nYMEHXQ9zQlQtRzDtokuiERL9owTRS6NpWgJUvwDBt3Pvfi/Hlr8yG6+l43+FH4JgjP4a53zkb8biOggQyVFjB78xyThFJCZ57FmISlpJBTeLM0tsVi3CaEhDGOzu6kUwmkWyOw7KKaIr5vlwWCTWX1x0iacqsQ+i7QL4bllWANW4iCkwoB6pVelXkg8Byi4qIyMMZSpAeDiR2peLPNhGPSZCkgFyxB7YnX28ZD9mhQZ5qxeTxaoGIq6cZ8qzQBbWk72xV6zVVZfDSRUs8la6aNvgdhn+tbili/vUOunItDr7fAuVMlQvjvUF66P6Hv35z3VFW0VNTWek3XHZ1dXHh7b/hpOkzeMU11/vVBXFyoR/yE/6qvk5N4qWbcanMSMlSPvXYOb/QCumVyeTZyrLk3g6ZJIefrqoK+PFp+vLLuX+EsknMeYc+y+pSmXfWZ1h+YL/VWXDVI3x9CsiDe9nlzZB4rT+Xh22Lc2LAVI+66lPvWKQ65gAWQMOdZQqFgupWXddV4I5FAOrNc5WBjnqz0z99AThcaSFjpoAsliuHnEdHuQbGHMC6rqtuOJPJqO457JLFihOJRLl00RXGXBct1huCWtpdR1j2rYExZ8ECbjabVSHFcCwuFovqWqw4Oso1MOYsOLTa8FfADbvmMK1cxN37aswBvHvDVb30Y66Lrl7E3btEBHCD4x8BHAHc4BpocPEiC44AbnANNLh4kQVHADe4BhpcvP8DR0yspVV/OqoAAAAASUVORK5CYII=;" parent="1" vertex="1">
          <mxGeometry x="608" y="270" width="120" height="158" as="geometry"/>
        </mxCell>
        <mxCell id="mM6E--xUafw9xjtyWwfx-4" value="" style="shape=doubleArrow;whiteSpace=wrap;html=1;fillColor=#dae8fc;strokeColor=#6c8ebf;" parent="1" vertex="1">
          <mxGeometry x="328" y="310" width="240" height="51" as="geometry"/>
        </mxCell>
        <mxCell id="mM6E--xUafw9xjtyWwfx-5" value="" style="endArrow=classic;html=1;" parent="1" edge="1">
          <mxGeometry width="50" height="50" relative="1" as="geometry">
            <mxPoint x="318" y="320" as="sourcePoint"/>
            <mxPoint x="238" y="260" as="targetPoint"/>
          </mxGeometry>
        </mxCell>
        <mxCell id="mM6E--xUafw9xjtyWwfx-6" value="" style="endArrow=classic;html=1;" parent="1" edge="1">
          <mxGeometry width="50" height="50" relative="1" as="geometry">
            <mxPoint x="308" y="340" as="sourcePoint"/>
            <mxPoint x="238" y="340" as="targetPoint"/>
          </mxGeometry>
        </mxCell>
        <mxCell id="mM6E--xUafw9xjtyWwfx-7" value="" style="endArrow=classic;html=1;" parent="1" edge="1">
          <mxGeometry width="50" height="50" relative="1" as="geometry">
            <mxPoint x="318" y="360" as="sourcePoint"/>
            <mxPoint x="238" y="410" as="targetPoint"/>
          </mxGeometry>
        </mxCell>
        <mxCell id="mM6E--xUafw9xjtyWwfx-8" value="channel" style="text;html=1;strokeColor=none;fillColor=none;align=center;verticalAlign=middle;whiteSpace=wrap;rounded=0;" parent="1" vertex="1">
          <mxGeometry x="268" y="260" width="40" height="20" as="geometry"/>
        </mxCell>
        <mxCell id="mM6E--xUafw9xjtyWwfx-9" value="channel" style="text;html=1;strokeColor=none;fillColor=none;align=center;verticalAlign=middle;whiteSpace=wrap;rounded=0;" parent="1" vertex="1">
          <mxGeometry x="258" y="315.5" width="40" height="20" as="geometry"/>
        </mxCell>
        <mxCell id="mM6E--xUafw9xjtyWwfx-10" value="channel" style="text;html=1;strokeColor=none;fillColor=none;align=center;verticalAlign=middle;whiteSpace=wrap;rounded=0;" parent="1" vertex="1">
          <mxGeometry x="278" y="380" width="40" height="20" as="geometry"/>
        </mxCell>
        <mxCell id="mM6E--xUafw9xjtyWwfx-11" value="Producer1" style="ellipse;whiteSpace=wrap;html=1;" parent="1" vertex="1">
          <mxGeometry x="128" y="229" width="80" height="50" as="geometry"/>
        </mxCell>
        <mxCell id="mM6E--xUafw9xjtyWwfx-13" value="&lt;span style=&quot;white-space: normal&quot;&gt;Producer2&lt;/span&gt;" style="ellipse;whiteSpace=wrap;html=1;" parent="1" vertex="1">
          <mxGeometry x="128" y="311" width="80" height="50" as="geometry"/>
        </mxCell>
        <mxCell id="mM6E--xUafw9xjtyWwfx-14" value="&lt;span style=&quot;white-space: normal&quot;&gt;Producer3&lt;/span&gt;" style="ellipse;whiteSpace=wrap;html=1;" parent="1" vertex="1">
          <mxGeometry x="128" y="390" width="80" height="50" as="geometry"/>
        </mxCell>
        <mxCell id="1_doa3acK_vzxFdq9QtK-1" value="TCP Connection" style="text;html=1;strokeColor=none;fillColor=none;align=center;verticalAlign=middle;whiteSpace=wrap;rounded=0;" vertex="1" parent="1">
          <mxGeometry x="343" y="305.5" width="210" height="20" as="geometry"/>
        </mxCell>
      </root>
    </mxGraphModel>
  </diagram>
</mxfile>
